<svg xmlns="http://www.w3.org/2000/svg" viewBox="0 0 87 87"><title>Pickup Date</title><g id="Layer_2" data-name="Layer 2"><g id="Layer_1-2" data-name="Layer 1"><polygon points="16.313 0 21.75 0 21.75 16.313 16.313 16.313 16.313 0" style="fill:#ccc"/><polygon points="59.813 0 65.25 0 65.25 16.313 59.813 16.313 59.813 0" style="fill:#ccc"/><path d="M35.8875,76.125H5.4375v-43.5H76.125v3.2625a19.5288,19.5288,0,0,1,5.4375,3.8063V5.4375H70.6875V21.75H54.375V5.4375H27.1875V21.75H10.875V5.4375H0v76.125H39.6938A19.5288,19.5288,0,0,1,35.8875,76.125Z" style="fill:#ccc"/><polygon points="76.125 65.25 59.813 65.25 59.813 48.938 65.25 48.938 65.25 59.813 76.125 59.813 76.125 65.25" style="fill:#ccc"/><path d="M62.5312,43.5A19.0313,19.0313,0,1,1,43.5,62.5312,19.2658,19.2658,0,0,1,62.5312,43.5Zm0-5.4375A24.4688,24.4688,0,1,0,87,62.5312,24.367,24.367,0,0,0,62.5312,38.0625Z" style="fill:#ccc"/></g></g></svg>